PathFileType	4	(X/Y/Z)	s01c0101.trc
DataRate	CameraRate	NumFrames	NumMarkers	Units	OrigDataRate	OrigDataStartFrame	OrigNumFrames
200	200	5	47	mm	200	1500	2000
Frame#	Time	racr			lacr			c7			jug			rlel			rdr			llel			ldr			s2			lic			ric			lasi			rasi			rpsi			lpsi			rgt			lgt			rth1			rth2			rth3			rth4			rlfc			rsh1			rsh2			rsh3			rsh4			rlmal			rmmal			rcal			rtoe			rmt5			lth1			lth2			lth4			lth3			llfc			lsh1			lsh2			lsh3			lsh4			llmal			lcal			ltoe			lmt5			SBIKE			LBIKE			RBIKE			
		X1	Y1	Z1	X2	Y2	Z2	X3	Y3	Z3	X4	Y4	Z4	X5	Y5	Z5	X6	Y6	Z6	X7	Y7	Z7	X8	Y8	Z8	X9	Y9	Z9	X10	Y10	Z10	X11	Y11	Z11	X12	Y12	Z12	X13	Y13	Z13	X14	Y14	Z14	X15	Y15	Z15	X16	Y16	Z16	X17	Y17	Z17	X18	Y18	Z18	X19	Y19	Z19	X20	Y20	Z20	X21	Y21	Z21	X22	Y22	Z22	X23	Y23	Z23	X24	Y24	Z24	X25	Y25	Z25	X26	Y26	Z26	X27	Y27	Z27	X28	Y28	Z28	X29	Y29	Z29	X30	Y30	Z30	X31	Y31	Z31	X32	Y32	Z32	X33	Y33	Z33	X34	Y34	Z34	X35	Y35	Z35	X36	Y36	Z36	X37	Y37	Z37	X38	Y38	Z38	X39	Y39	Z39	X40	Y40	Z40	X41	Y41	Z41	X42	Y42	Z42	X43	Y43	Z43	X44	Y44	Z44	X45	Y45	Z45	X46	Y46	Z46	X47	Y47	Z47	
1500	7.5000	506.141418	1325.838501	-101.123787	514.464172	1315.192383	-406.851807	468.092590	1390.687378	-243.878281	466.681641	1227.388428	-246.700958	569.162415	1062.579224	1.390545	723.525757	850.784424	-53.565510	514.665771	1042.859009	-525.672852	702.812805	882.197388	-434.307678	-55.971519	1172.399658	-221.118347	105.189499	1205.851929	-397.609711	111.601128	1169.850952	-81.434532	106.333015	1147.767700	-383.243652	134.639664	1126.104614	-111.147560	-23.023647	1208.856689	-167.811859	-32.943134	1221.278687	-272.189362	62.718075	1048.934326	-51.852573	52.896263	1076.067261	-432.297333	155.066711	954.627502	-47.991596	216.618423	899.519287	-52.492474	279.039124	834.583618	-63.938892	254.369736	937.955139	-64.594742	328.387054	736.421204	-87.747574	254.550522	647.333862	-59.880013	212.229034	574.543762	-64.891518	161.217850	501.824402	-74.075470	255.393295	548.622375	-98.999413	88.675331	413.344818	-90.525330	133.607513	401.410034	-166.337692	52.885509	433.348511	-146.976974	184.710205	196.260101	-135.101471	102.746101	266.452972	-65.622765	151.722092	988.312500	-442.188202	234.490982	965.684631	-435.043671	251.289658	1016.982056	-425.797577	312.842651	933.153931	-422.254822	404.419037	863.215698	-398.989288	356.079193	757.529175	-432.780090	334.545593	673.166748	-431.410950	311.231995	590.732605	-421.847687	387.675781	660.874939	-402.086578	274.726685	466.187103	-412.100677	223.502258	427.391968	-372.287933	499.407776	412.086639	-369.141541	397.871796	386.440765	-439.385925	-223.199005	893.788208	-248.302078	-12.053862	84.408623	-453.438873	-20.199860	80.708794	-53.463562	
1501	7.5050	505.915436	1325.768433	-101.260345	514.858826	1315.418091	-406.561676	468.139923	1390.574585	-243.887299	466.834869	1227.315430	-246.619568	568.926331	1062.494019	1.295297	723.418091	850.826416	-53.486027	515.388184	1043.293091	-525.859375	702.857727	882.103699	-434.273346	-56.128380	1171.877075	-221.729935	104.993652	1204.718384	-398.184174	111.504196	1170.224487	-81.656212	105.896744	1146.503906	-383.735626	134.656738	1126.390381	-111.700371	-23.369740	1208.704102	-168.586334	-33.208996	1220.351196	-273.233276	63.935425	1049.970825	-51.570099	52.692059	1072.914185	-432.148132	158.174332	957.430176	-47.741966	220.839417	903.481750	-52.382889	284.069641	839.712463	-64.292709	257.574646	942.661011	-65.098473	334.195953	742.662231	-88.174248	258.687531	654.868408	-60.278080	215.120071	582.796753	-65.171547	162.824646	511.034332	-74.302284	257.567688	555.983459	-99.151886	88.846153	423.658447	-90.459709	133.190002	410.848022	-166.458755	53.278870	444.291870	-147.037399	180.956665	205.051804	-134.929749	100.150932	276.492126	-65.633423	150.462372	983.917908	-441.909088	233.237152	959.227966	-434.776520	250.750290	1010.263062	-425.804443	310.297882	925.061768	-421.670532	399.822296	852.702515	-398.835571	352.654510	745.243042	-432.576447	333.120758	660.882874	-430.677032	311.488708	578.254517	-421.650909	386.517181	649.955811	-401.810699	277.115723	454.467438	-412.253448	226.336182	415.119995	-372.064911	502.345642	401.901703	-369.122559	400.970093	375.604370	-439.417847	-223.153625	893.795471	-248.291199	-12.061325	84.385254	-453.419128	-20.186190	80.703255	-53.458420	
1502	7.5100	505.678802	1325.557495	-101.355293	515.302002	1315.534424	-406.286224	468.171509	1390.454346	-243.989746	466.997070	1227.229614	-246.638290	568.570679	1062.379028	1.362841	723.306396	850.846680	-53.396141	515.981140	1043.618896	-526.108459	702.936646	882.000671	-434.273956	-56.361149	1171.143066	-222.506561	104.840302	1203.281494	-398.933350	111.383522	1170.538818	-81.979988	105.600349	1145.071045	-384.449921	134.771286	1126.792236	-112.338493	-23.718178	1208.522827	-169.522919	-33.444614	1219.339355	-274.350342	64.783485	1051.060181	-51.632858	52.543316	1069.909790	-432.107452	161.341202	960.332886	-47.520607	225.223007	907.776672	-52.122791	290.010345	845.257690	-64.414680	260.764404	947.651550	-65.743080	339.962280	749.234375	-88.564606	262.978882	662.570435	-60.579292	217.676880	591.219421	-65.831322	164.791992	520.304810	-74.441315	260.319977	563.667664	-99.243935	89.473022	434.138855	-90.333565	131.297516	420.149750	-167.160599	54.137894	455.303864	-147.092941	177.859726	214.069687	-134.796539	98.162506	286.849945	-65.590477	149.226395	979.335144	-441.708099	231.715820	952.863525	-434.698792	250.267593	1003.336548	-425.825958	307.918457	916.870667	-420.980530	395.031616	842.125854	-398.785248	349.546387	734.355591	-432.621277	331.276581	648.858398	-430.264984	311.310028	566.160950	-421.527344	384.910095	639.254883	-401.580170	279.096863	442.804443	-412.410736	228.638153	403.544830	-372.286621	504.687225	391.356232	-369.043274	403.486237	364.584686	-439.418854	-223.100876	893.787720	-248.266876	-12.039400	84.385681	-453.431488	-20.185249	80.710365	-53.461273	
1503	7.5150	505.447571	1325.321411	-101.437386	515.795898	1315.445801	-406.051117	468.201599	1390.287720	-244.175003	467.090424	1227.065186	-246.697952	568.148193	1062.142578	1.544802	723.165894	850.877014	-53.269726	516.447327	1043.854614	-526.446289	702.982605	881.841248	-434.258423	-56.560768	1170.370117	-223.304855	104.733139	1201.526489	-399.864777	111.295418	1170.753052	-82.360352	105.483215	1143.541626	-385.387695	134.856903	1127.213989	-112.940300	-24.016918	1208.250854	-170.658615	-33.653122	1218.238159	-275.472443	65.755592	1052.167603	-51.487354	52.571484	1066.891479	-432.117249	164.435318	963.387268	-47.348206	229.557602	912.232239	-51.948494	295.612183	851.182251	-64.535667	263.986786	952.804932	-66.647018	345.906555	756.180054	-88.703453	267.510223	670.429199	-60.880390	221.092773	599.668518	-66.074989	167.191650	529.646851	-74.625145	263.415955	571.401489	-99.328758	90.550797	444.617340	-90.292854	130.525009	428.837952	-167.925873	55.405773	466.357513	-147.152435	175.450256	223.277359	-134.747635	96.914268	297.274994	-65.625656	147.984573	974.584595	-441.594360	230.023010	946.010437	-434.333038	249.846649	996.226746	-425.802521	305.510773	908.462463	-420.203583	389.863281	831.657288	-398.477051	345.711365	723.339905	-432.681335	329.013916	637.646240	-430.335571	310.506042	554.335449	-421.427856	382.960297	628.844849	-401.858582	280.254791	430.992584	-412.564331	230.365097	392.176300	-372.458160	506.471466	380.653656	-368.979706	405.356903	353.503296	-439.428101	-223.073151	893.780457	-248.253845	-12.040958	84.391731	-453.441010	-20.182564	80.700180	-53.464241	
1504	7.5200	505.228912	1325.114380	-101.434235	516.297729	1315.203003	-405.908203	468.210480	1390.088013	-244.470490	467.188934	1226.890869	-246.845825	567.688599	1061.818726	1.783158	723.075073	850.944824	-53.130924	516.786987	1043.958618	-526.885193	703.049438	881.661072	-434.308411	-56.777813	1169.527466	-224.279327	104.675835	1199.438110	-400.985931	111.221458	1171.006714	-82.764984	105.176941	1141.860962	-386.176971	134.994766	1127.718018	-113.610146	-24.294329	1208.011719	-171.861008	-33.819622	1217.105713	-276.676208	66.635170	1053.282593	-51.416779	52.751923	1064.018921	-432.203186	167.472366	966.568542	-47.193745	233.865570	916.983032	-51.808346	301.199036	857.408142	-64.410172	267.329529	958.184387	-68.076233	352.129822	763.347412	-89.862000	272.382111	678.354431	-61.068424	224.850281	608.298706	-66.318550	169.926666	539.066833	-74.747917	266.741913	579.371643	-99.531075	92.028366	455.208344	-90.291031	132.116547	439.040314	-168.588104	57.017319	477.402191	-147.222183	173.678329	232.755600	-134.794098	96.195457	307.834625	-65.654594	146.694077	969.694153	-441.572906	227.819427	939.392944	-433.766724	249.299011	988.873047	-425.751923	302.892700	899.907227	-419.476929	384.724365	821.122620	-398.560608	341.278137	712.679749	-432.711700	326.343292	626.893555	-430.425659	309.017181	543.145142	-421.494507	380.293793	618.818665	-402.250305	280.883972	419.649994	-412.754822	231.200317	381.587952	-373.381683	507.689514	369.582001	-368.466125	406.631866	342.388733	-439.404114	-223.082764	893.773499	-248.268295	-12.049295	84.355225	-453.425720	-20.173878	80.679970	-53.467030	
